<svg width="167" height="50" viewBox="0 0 167 50" fill="none" xmlns="http://www.w3.org/2000/svg">
<path d="M71.9727 19.1543H67.6172V31H64.6875V19.1543H60.3906V16.7812H71.9727V19.1543ZM76.4453 31H73.6133V20.4336H76.4453V31ZM73.4473 17.6992C73.4473 17.276 73.5872 16.9277 73.8672 16.6543C74.1536 16.3809 74.541 16.2441 75.0293 16.2441C75.5111 16.2441 75.8952 16.3809 76.1816 16.6543C76.4681 16.9277 76.6113 17.276 76.6113 17.6992C76.6113 18.1289 76.4648 18.4805 76.1719 18.7539C75.8854 19.0273 75.5046 19.1641 75.0293 19.1641C74.554 19.1641 74.1699 19.0273 73.877 18.7539C73.5905 18.4805 73.4473 18.1289 73.4473 17.6992ZM81.4258 20.4336L81.5137 21.6152C82.2624 20.6973 83.2747 20.2383 84.5508 20.2383C85.9115 20.2383 86.8457 20.7754 87.3535 21.8496C88.0957 20.7754 89.1536 20.2383 90.5273 20.2383C91.6732 20.2383 92.526 20.5736 93.0859 21.2441C93.6458 21.9082 93.9258 22.9108 93.9258 24.252V31H91.0938V24.2617C91.0938 23.6628 90.9766 23.2266 90.7422 22.9531C90.5078 22.6732 90.0944 22.5332 89.502 22.5332C88.6556 22.5332 88.0697 22.9368 87.7441 23.7441L87.7539 31H84.9316V24.2715C84.9316 23.6595 84.8112 23.2168 84.5703 22.9434C84.3294 22.6699 83.9193 22.5332 83.3398 22.5332C82.5391 22.5332 81.9596 22.8652 81.6016 23.5293V31H78.7793V20.4336H81.4258ZM100.059 27.5527L102.021 20.4336H104.971L101.406 31H98.7109L95.1465 20.4336H98.0957L100.059 27.5527ZM109.199 31H106.367V20.4336H109.199V31ZM106.201 17.6992C106.201 17.276 106.341 16.9277 106.621 16.6543C106.908 16.3809 107.295 16.2441 107.783 16.2441C108.265 16.2441 108.649 16.3809 108.936 16.6543C109.222 16.9277 109.365 17.276 109.365 17.6992C109.365 18.1289 109.219 18.4805 108.926 18.7539C108.639 19.0273 108.258 19.1641 107.783 19.1641C107.308 19.1641 106.924 19.0273 106.631 18.7539C106.344 18.4805 106.201 18.1289 106.201 17.6992ZM116.396 31.1953C114.847 31.1953 113.584 30.7201 112.607 29.7695C111.637 28.819 111.152 27.5527 111.152 25.9707V25.6973C111.152 24.6361 111.357 23.6888 111.768 22.8555C112.178 22.0156 112.757 21.3711 113.506 20.9219C114.261 20.4661 115.12 20.2383 116.084 20.2383C117.529 20.2383 118.665 20.694 119.492 21.6055C120.326 22.5169 120.742 23.8092 120.742 25.4824V26.6348H114.014C114.105 27.3249 114.378 27.8783 114.834 28.2949C115.296 28.7116 115.879 28.9199 116.582 28.9199C117.669 28.9199 118.519 28.526 119.131 27.7383L120.518 29.291C120.094 29.89 119.521 30.3587 118.799 30.6973C118.076 31.0293 117.275 31.1953 116.396 31.1953ZM116.074 22.5234C115.514 22.5234 115.059 22.7122 114.707 23.0898C114.362 23.4674 114.141 24.0078 114.043 24.7109H117.969V24.4863C117.956 23.8613 117.786 23.3796 117.461 23.041C117.135 22.696 116.673 22.5234 116.074 22.5234ZM126.748 28.9199C127.269 28.9199 127.692 28.7767 128.018 28.4902C128.343 28.2038 128.512 27.8229 128.525 27.3477H131.172C131.165 28.0638 130.97 28.7214 130.586 29.3203C130.202 29.9128 129.674 30.375 129.004 30.707C128.34 31.0326 127.604 31.1953 126.797 31.1953C125.286 31.1953 124.095 30.7168 123.223 29.7598C122.35 28.7962 121.914 27.4681 121.914 25.7754V25.5898C121.914 23.9622 122.347 22.6634 123.213 21.6934C124.079 20.7233 125.267 20.2383 126.777 20.2383C128.099 20.2383 129.157 20.6159 129.951 21.3711C130.752 22.1198 131.159 23.1191 131.172 24.3691H128.525C128.512 23.8223 128.343 23.3796 128.018 23.041C127.692 22.696 127.262 22.5234 126.729 22.5234C126.071 22.5234 125.573 22.7643 125.234 23.2461C124.902 23.7214 124.736 24.4961 124.736 25.5703V25.8633C124.736 26.9505 124.902 27.7318 125.234 28.207C125.566 28.6823 126.071 28.9199 126.748 28.9199ZM135.537 22.6406H137.041C137.757 22.6406 138.288 22.4616 138.633 22.1035C138.978 21.7454 139.15 21.2702 139.15 20.6777C139.15 20.1048 138.978 19.6589 138.633 19.3398C138.294 19.0208 137.826 18.8613 137.227 18.8613C136.686 18.8613 136.234 19.0111 135.869 19.3105C135.505 19.6035 135.322 19.9876 135.322 20.4629H132.5C132.5 19.7207 132.699 19.0566 133.096 18.4707C133.499 17.8783 134.059 17.416 134.775 17.084C135.498 16.752 136.292 16.5859 137.158 16.5859C138.662 16.5859 139.84 16.9473 140.693 17.6699C141.546 18.3861 141.973 19.3757 141.973 20.6387C141.973 21.2897 141.774 21.8887 141.377 22.4355C140.98 22.9824 140.459 23.4023 139.814 23.6953C140.615 23.9818 141.211 24.4115 141.602 24.9844C141.999 25.5573 142.197 26.2344 142.197 27.0156C142.197 28.2786 141.735 29.291 140.811 30.0527C139.893 30.8145 138.675 31.1953 137.158 31.1953C135.739 31.1953 134.577 30.821 133.672 30.0723C132.773 29.3236 132.324 28.334 132.324 27.1035H135.146C135.146 27.6374 135.345 28.0736 135.742 28.4121C136.146 28.7507 136.641 28.9199 137.227 28.9199C137.897 28.9199 138.421 28.7441 138.799 28.3926C139.183 28.0345 139.375 27.5625 139.375 26.9766C139.375 25.5573 138.594 24.8477 137.031 24.8477H135.537V22.6406ZM151.807 16.6348V18.959H151.533C150.257 18.9785 149.229 19.3105 148.447 19.9551C147.673 20.5996 147.207 21.4948 147.051 22.6406C147.806 21.8724 148.76 21.4883 149.912 21.4883C151.149 21.4883 152.132 21.931 152.861 22.8164C153.59 23.7018 153.955 24.8672 153.955 26.3125C153.955 27.237 153.753 28.0736 153.35 28.8223C152.952 29.571 152.386 30.1536 151.65 30.5703C150.921 30.987 150.094 31.1953 149.17 31.1953C147.673 31.1953 146.462 30.6745 145.537 29.6328C144.619 28.5911 144.16 27.2012 144.16 25.4629V24.4473C144.16 22.9043 144.45 21.5436 145.029 20.3652C145.615 19.1803 146.452 18.2656 147.539 17.6211C148.633 16.9701 149.899 16.6413 151.338 16.6348H151.807ZM149.053 23.7539C148.597 23.7539 148.184 23.8743 147.812 24.1152C147.441 24.3496 147.168 24.6621 146.992 25.0527V25.9121C146.992 26.8561 147.178 27.5951 147.549 28.1289C147.92 28.6562 148.441 28.9199 149.111 28.9199C149.717 28.9199 150.205 28.6823 150.576 28.207C150.954 27.7253 151.143 27.1035 151.143 26.3418C151.143 25.5671 150.954 24.9421 150.576 24.4668C150.199 23.9915 149.691 23.7539 149.053 23.7539ZM156.055 24.0078L156.875 16.7812H164.844V19.1348H159.189L158.838 22.1914C159.508 21.8333 160.221 21.6543 160.977 21.6543C162.331 21.6543 163.392 22.0742 164.16 22.9141C164.928 23.7539 165.312 24.929 165.312 26.4395C165.312 27.3574 165.117 28.181 164.727 28.9102C164.342 29.6328 163.789 30.196 163.066 30.5996C162.344 30.9967 161.491 31.1953 160.508 31.1953C159.648 31.1953 158.851 31.0228 158.115 30.6777C157.38 30.3262 156.797 29.8346 156.367 29.2031C155.944 28.5716 155.719 27.8522 155.693 27.0449H158.486C158.545 27.6374 158.75 28.0996 159.102 28.4316C159.46 28.7572 159.925 28.9199 160.498 28.9199C161.136 28.9199 161.628 28.6921 161.973 28.2363C162.318 27.7741 162.49 27.123 162.49 26.2832C162.49 25.4759 162.292 24.8574 161.895 24.4277C161.497 23.998 160.934 23.7832 160.205 23.7832C159.535 23.7832 158.991 23.959 158.574 24.3105L158.301 24.5645L156.055 24.0078Z" fill="white"/>
<circle cx="25" cy="25" r="25" fill="white"/>
<path d="M12.6955 24.1007C12.6955 25.1233 12.3676 25.9243 11.7097 26.5058C11.0407 27.0807 10.1165 27.3682 8.93482 27.3682H3V24.9784H7.91598C8.49251 24.9784 8.91281 24.8819 9.17468 24.691C9.43654 24.4935 9.56857 24.1885 9.56857 23.7715C9.56857 23.3875 9.44314 23.0868 9.19228 22.8696C8.93042 22.6611 8.50572 22.558 7.91818 22.558L3.90662 22.5733V20.1858H7.84336C8.4375 20.1858 8.8644 20.0936 9.12627 19.9071C9.37712 19.7272 9.50255 19.4287 9.50255 19.0118C9.50255 18.6168 9.37712 18.3227 9.12627 18.1252C8.99863 18.0177 8.82919 17.9409 8.62014 17.8926C8.40009 17.8509 8.14263 17.829 7.84336 17.829H3V15.4414H8.68616C10.0021 15.4414 10.9989 15.7047 11.6767 16.2314C12.3456 16.7647 12.6801 17.592 12.6801 18.7155C12.6801 19.2795 12.5547 19.7798 12.3038 20.2165C12.042 20.6532 11.7031 21.0372 11.285 21.3664C11.7449 21.6495 12.0794 21.9874 12.2884 22.3802C12.5591 22.8411 12.6955 23.4138 12.6955 24.1007Z" fill="#4C5BD4"/>
<path d="M24.5584 23.7096C24.5584 24.9604 24.1029 25.9084 23.194 26.5536C22.2852 27.1987 20.9759 27.5191 19.2639 27.5191C17.2438 27.5191 15.7497 27.0341 14.7814 26.0642C13.8198 25.1008 13.3379 23.5889 13.3379 21.5261C13.3379 19.4436 13.8528 17.9075 14.8849 16.9178C15.9015 15.9325 17.4859 15.4409 19.6402 15.4409H23.9378L23.929 17.8285H19.5786C18.4981 17.8285 17.7147 18.0369 17.2284 18.4517C16.9996 18.6492 16.8257 18.8994 16.7069 19.2022C16.5727 19.5226 16.5066 19.889 16.5066 20.3038H20.3884C21.7879 20.3038 22.8332 20.5825 23.5241 21.1377C24.2129 21.6995 24.5584 22.5553 24.5584 23.7096ZM21.4534 23.8368C21.4534 23.4528 21.3544 23.1632 21.1564 22.9657C20.9583 22.7857 20.6568 22.6935 20.2497 22.6935H16.5221C16.5221 23.5077 16.7509 24.1243 17.2108 24.5391C17.6597 24.9648 18.3793 25.1776 19.3673 25.1776C20.1221 25.1776 20.6546 25.0679 20.9715 24.8507C21.295 24.6334 21.4534 24.2955 21.4534 23.8368Z" fill="#4C5BD4"/>
<path d="M35.4643 23.7561C35.4643 24.9214 35.0968 25.8167 34.3662 26.4399C33.6291 27.0588 32.5882 27.366 31.2459 27.366H24.9502V24.9784H30.7002C31.2657 24.9784 31.6662 24.8819 31.8951 24.691C32.1151 24.5044 32.2229 24.1928 32.2229 23.7561C32.2229 23.3085 32.1129 22.9859 31.8951 22.7906C31.6662 22.6041 31.2657 22.5119 30.7002 22.5119H24.9502V15.4414H34.879L34.8702 17.829H27.8923V20.1375H31.7806C32.9095 20.1375 33.8117 20.4491 34.4917 21.0723C34.8063 21.3971 35.0506 21.7789 35.2222 22.2156C35.3829 22.6611 35.4643 23.1768 35.4643 23.7561Z" fill="#4C5BD4"/>
<path fill-rule="evenodd" clip-rule="evenodd" d="M36.8936 31.1446L41.288 27.1946L46.072 28.5793C46.072 28.5793 49.2275 29.8981 47.4649 32.1057C46.6705 32.887 45.9179 33.6265 43.1408 32.8804C42.3531 32.6192 36.8936 31.1446 36.8936 31.1446Z" fill="#4C5BD4"/>
<path fill-rule="evenodd" clip-rule="evenodd" d="M11.4431 28.3503C11.4894 28.4557 11.529 28.5632 11.5774 28.6685C11.6632 28.855 11.7578 29.035 11.8612 29.2127C12.1209 29.656 12.4356 30.0664 12.7965 30.4328C13.2498 30.8915 13.7757 31.2777 14.3456 31.5783C15.0652 31.9602 15.8486 32.2081 16.6474 32.3486C17.7014 32.5351 18.7819 32.5417 19.8469 32.4408C21.2861 32.3047 22.7054 31.9777 24.0852 31.5542C28.0571 30.3341 31.7254 28.5368 34.8325 25.7543C34.8787 25.7126 34.925 25.6709 34.9734 25.6292C37.1233 23.6784 39.7661 20.9397 39.4404 17.7731C39.2336 15.7718 36.7976 14.6526 35.079 14.2445C34.3462 14.0711 34.4848 12.9827 35.2374 13.0002C38.7077 13.0836 42.2527 14.0206 43.4388 16.9875C43.4454 17.0051 43.452 17.0226 43.4586 17.0424C43.7557 17.997 43.8195 19.0305 43.7381 20.0202C43.584 21.9118 42.8535 23.7135 41.806 25.2869C40.0566 27.918 37.504 29.9479 34.8303 31.5827C32.5748 32.963 30.2466 34.0361 27.7292 34.8173C25.9556 35.3681 24.149 35.8202 22.3071 36.0791C20.2452 36.3688 18.0975 36.4324 16.0642 35.9255C14.0178 35.4164 12.2067 34.2665 11.0448 32.4868C10.3363 31.4028 9.89177 30.1695 9.62551 28.9077C9.54629 28.5368 9.64531 28.0343 9.97099 27.7929C10.3869 27.4857 11.058 27.76 11.3287 28.1353C11.3749 28.2077 11.4123 28.2779 11.4431 28.3503Z" fill="#4C5BD4"/>
<path fill-rule="evenodd" clip-rule="evenodd" d="M12.7676 28.1413C12.7676 28.1413 18.8608 33.6384 29.3221 27.7485C28.1559 29.1223 15.1309 35.4049 12.7676 28.1413Z" fill="#4C5BD4"/>
</svg>
