<svg width="26" height="26" viewBox="0 0 26 26" fill="none" xmlns="http://www.w3.org/2000/svg">
<path d="M19.2577 14.6935L16.8909 14.2369C16.6701 14.9453 16.2406 15.5752 15.6556 16.0491L18.8413 20.6243C19.7982 20.2426 20.8948 20.4208 21.672 21.0843C22.8023 22.0492 22.9142 23.7222 21.9217 24.8212C20.9293 25.9201 19.2084 26.0288 18.078 25.0639C16.9477 24.0991 16.8359 22.426 17.8284 21.327L14.5829 16.6659C13.6194 17.0331 12.5449 17.0101 11.599 16.6021L8.88412 20.3352C9.69231 21.3254 9.80651 22.6917 9.1734 23.7957C8.30992 25.3015 6.35432 25.8416 4.80549 25.0021C3.25666 24.1626 2.70111 22.2614 3.56459 20.7555C4.42808 19.2497 6.38368 18.7096 7.93251 19.5491L10.5561 15.9418C9.30408 14.8381 8.93152 13.0731 9.63509 11.5791L5.25523 8.27221C4.54693 8.75724 3.62586 8.83682 2.84074 8.48077C1.63057 7.93195 1.10706 6.53329 1.67156 5.35668C2.23606 4.18012 3.67468 3.67115 4.88491 4.21997C6.09508 4.76879 6.6186 6.16745 6.05409 7.34407L10.3293 10.572C11.5478 9.29735 13.5055 8.99942 15.0664 9.85107L18.3289 5.37028C17.5171 4.51681 17.3003 3.27785 17.776 2.21135C18.439 0.725012 20.216 0.0426735 21.7448 0.687279C23.2736 1.33188 23.9754 3.0595 23.3124 4.54584C22.6494 6.03218 20.8725 6.71458 19.3436 6.06991L16.042 10.6044C16.6679 11.2707 17.0269 12.1333 17.0535 13.0353L19.5027 13.5078C19.8855 12.7548 20.6531 12.2582 21.5153 12.2058C22.8453 12.125 23.9909 13.1076 24.0741 14.4007C24.1572 15.6938 23.1465 16.8075 21.8165 16.8884C20.4865 16.9692 19.3409 15.9866 19.2577 14.6935Z" fill="white" stroke="white" stroke-width="0.5"/>
</svg>
