<svg width="26" height="26" viewBox="0 0 26 26" fill="none" xmlns="http://www.w3.org/2000/svg">
<path d="M8.9814 8.26318C7.36432 8.26318 6.04883 9.57867 6.04883 11.1958C6.04883 12.8133 7.36432 14.1288 8.9814 14.1288C10.5985 14.1288 11.9145 12.8133 11.9145 11.1958C11.9145 9.57867 10.5985 8.26318 8.9814 8.26318Z" fill="white"/>
<path d="M25.0668 1.78735H0.932648C0.417574 1.78735 0 2.20493 0 2.72005V17.6697C0 18.1848 0.417523 18.6023 0.932648 18.6023H1.37536L5.54323 14.4345C5.64718 14.3305 5.65739 14.1635 5.56304 14.0507C4.88531 13.2404 4.48947 12.1867 4.52832 11.0416C4.6082 8.68751 6.5392 6.78611 8.89429 6.74096C11.4249 6.69242 13.4926 8.76475 13.4365 11.2965C13.3842 13.6535 11.4758 15.5784 9.1193 15.6499C8.41257 15.6714 7.7415 15.5271 7.14106 15.2537C7.03269 15.2043 6.90534 15.2266 6.82109 15.3109L3.52914 18.6023H25.0668C25.5817 18.6023 26 18.184 26 17.6697V2.72056C26 2.20625 25.5817 1.78735 25.0668 1.78735ZM16.1595 15.0102C16.1595 15.4311 15.8188 15.7718 15.3979 15.7718C14.9776 15.7718 14.6364 15.4311 14.6364 15.0102V12.0711C14.6364 11.6507 14.9776 11.3095 15.3979 11.3095C15.8188 11.3095 16.1595 11.6507 16.1595 12.0711V15.0102ZM18.5458 15.0102C18.5458 15.4311 18.2051 15.7718 17.7842 15.7718C17.3638 15.7718 17.0226 15.4311 17.0226 15.0102V6.99395C17.0226 6.57359 17.3638 6.23239 17.7842 6.23239C18.2051 6.23239 18.5458 6.57359 18.5458 6.99395V15.0102ZM20.9716 15.0102C20.9716 15.4311 20.6304 15.7718 20.21 15.7718C19.7891 15.7718 19.4485 15.4311 19.4485 15.0102V9.0248C19.4485 8.60443 19.7891 8.26323 20.21 8.26323C20.6304 8.26323 20.9716 8.60443 20.9716 9.0248V15.0102ZM23.399 15.0102C23.399 15.4311 23.0578 15.7718 22.6374 15.7718C22.2165 15.7718 21.8759 15.4311 21.8759 15.0102V11.0556C21.8759 10.6353 22.2165 10.2941 22.6374 10.2941C23.0578 10.2941 23.399 10.6353 23.399 11.0556V15.0102Z" fill="white"/>
<path d="M19.0976 22.749L19.0925 22.7468C17.9084 22.2391 16.6816 21.8854 15.4256 21.6868V20.2414C15.4256 20.0841 15.2981 19.9565 15.1407 19.9565H14.6362H13.9025H10.8594C10.7021 19.9565 10.5745 20.0841 10.5745 20.2414V21.6886C9.32536 21.887 8.10529 22.2389 6.92758 22.7431C6.55012 22.9047 6.35151 23.336 6.4971 23.7199C6.65183 24.128 7.11349 24.3211 7.51019 24.1505C9.25473 23.401 11.1021 23.0206 13.0009 23.0199H13.0168C14.8993 23.0199 16.7622 23.4032 18.4918 24.1465L18.5014 24.1506C18.5994 24.1927 18.7013 24.2126 18.8017 24.2126C19.1536 24.2126 19.4853 23.9672 19.5547 23.5728C19.6154 23.2274 19.4199 22.8872 19.0976 22.749Z" fill="white"/>
</svg>
