<svg width="26" height="26" viewBox="0 0 26 26" fill="none" xmlns="http://www.w3.org/2000/svg">
<g clip-path="url(#clip0)">
<path d="M13 6.8313L3.72721 14.4757C3.72721 14.4865 3.72449 14.5024 3.71907 14.524C3.71376 14.5455 3.71094 14.5611 3.71094 14.5721V22.3129C3.71094 22.5924 3.81312 22.8346 4.01743 23.0386C4.22168 23.2427 4.46355 23.3454 4.74309 23.3454H10.9356V17.1525H15.0645V23.3456H21.2569C21.5364 23.3456 21.7786 23.2431 21.9825 23.0386C22.1868 22.8348 22.2894 22.5925 22.2894 22.3129V14.5721C22.2894 14.5292 22.2835 14.4968 22.2731 14.4757L13 6.8313Z" fill="white"/>
<path d="M25.8206 12.7337L22.2891 9.79864V3.21887C22.2891 3.06845 22.2407 2.94474 22.1437 2.84793C22.0474 2.75123 21.9237 2.70287 21.773 2.70287H18.6767C18.5261 2.70287 18.4024 2.75123 18.3056 2.84793C18.2089 2.94474 18.1606 3.0685 18.1606 3.21887V6.36356L14.2258 3.07359C13.8821 2.79404 13.4735 2.6543 13.0004 2.6543C12.5273 2.6543 12.1188 2.79404 11.7748 3.07359L0.179202 12.7337C0.0717111 12.8196 0.0127971 12.9351 0.00183901 13.0803C-0.00906262 13.2254 0.0285 13.3521 0.11464 13.4595L1.11448 14.6529C1.20062 14.7496 1.31337 14.8088 1.45317 14.8304C1.58224 14.8412 1.71131 14.8035 1.84037 14.7175L13 5.41207L24.1598 14.7175C24.246 14.7925 24.3587 14.8299 24.4985 14.8299H24.547C24.6865 14.8087 24.799 14.7492 24.8856 14.6527L25.8856 13.4594C25.9716 13.3518 26.0092 13.2253 25.9981 13.0801C25.987 12.9353 25.9279 12.8197 25.8206 12.7337Z" fill="white"/>
</g>
<defs>
<clipPath id="clip0">
<rect width="26" height="25.9999" fill="white"/>
</clipPath>
</defs>
</svg>
